M48
;GenerationSoftware,Autodesk,EAGLE,9.6.2*%
;CreationDate,2021-12-08T09:06:31Z*%
FMAT,2
ICI,OFF
METRIC,TZ,000.000
T2C0.813
T1C0.914
%
G90
M71
T1
X12700Y46990
X15240Y46990
T2
X13970Y27940
X13970Y25400
X53340Y54610
X55880Y54610
X48260Y39370
X45720Y39370
X54610Y22860
X57150Y22860
X36830Y30480
X36830Y33020
X29210Y33020
X29210Y30480
X36830Y35560
X36830Y38100
X29210Y35560
X29210Y38100
X21590Y39370
X16510Y39370
X25400Y49530
X20320Y49530
X53340Y34290
X53340Y39370
X48260Y29210
X48260Y34290
M30