G04 EAGLE Gerber RS-274X export*
G75*
%MOMM*%
%FSLAX34Y34*%
%LPD*%
%INTop Copper*%
%IPPOS*%
%AMOC8*
5,1,8,0,0,1.08239X$1,22.5*%
G01*
%ADD10P,1.429621X8X292.500000*%
%ADD11P,1.429621X8X22.500000*%
%ADD12C,1.320800*%
%ADD13P,1.429621X8X202.500000*%
%ADD14P,1.429621X8X112.500000*%
%ADD15C,1.422400*%
%ADD16C,0.609600*%


D10*
X139700Y279400D03*
X139700Y254000D03*
D11*
X533400Y546100D03*
X558800Y546100D03*
D12*
X482600Y400304D02*
X482600Y387096D01*
X457200Y387096D02*
X457200Y400304D01*
X546100Y235204D02*
X546100Y221996D01*
X571500Y221996D02*
X571500Y235204D01*
X374904Y304800D02*
X361696Y304800D01*
X361696Y330200D02*
X374904Y330200D01*
X298704Y330200D02*
X285496Y330200D01*
X285496Y304800D02*
X298704Y304800D01*
X361696Y355600D02*
X374904Y355600D01*
X374904Y381000D02*
X361696Y381000D01*
X298704Y355600D02*
X285496Y355600D01*
X285496Y381000D02*
X298704Y381000D01*
D13*
X215900Y393700D03*
X165100Y393700D03*
X254000Y495300D03*
X203200Y495300D03*
D14*
X533400Y342900D03*
X533400Y393700D03*
X482600Y292100D03*
X482600Y342900D03*
D15*
X127000Y462788D02*
X127000Y477012D01*
X152400Y477012D02*
X152400Y462788D01*
D16*
X203200Y469900D02*
X215900Y457200D01*
X203200Y469900D02*
X203200Y495300D01*
X215900Y457200D02*
X215900Y393700D01*
X279400Y330200D01*
X292100Y330200D01*
X254000Y381000D02*
X254000Y495300D01*
X254000Y381000D02*
X279400Y355600D01*
X292100Y355600D01*
X317500Y279400D02*
X139700Y279400D01*
X317500Y279400D02*
X368300Y330200D01*
X355600Y368300D02*
X457200Y368300D01*
X469900Y381000D01*
X469900Y457200D01*
X457200Y469900D01*
X355600Y469900D01*
X330200Y444500D01*
X342900Y355600D02*
X342900Y342900D01*
X355600Y330200D01*
X368300Y330200D01*
X342900Y355600D02*
X355600Y368300D01*
X317500Y381000D02*
X317500Y406400D01*
X330200Y419100D01*
X330200Y444500D01*
X317500Y381000D02*
X292100Y355600D01*
X152400Y431800D02*
X152400Y469900D01*
X152400Y431800D02*
X165100Y419100D01*
X165100Y393700D01*
X241300Y304800D02*
X292100Y304800D01*
X241300Y304800D02*
X165100Y381000D01*
X165100Y393700D01*
X368300Y381000D02*
X381000Y393700D01*
X457200Y393700D01*
X330200Y342900D02*
X292100Y304800D01*
X330200Y368300D02*
X342900Y381000D01*
X368300Y381000D01*
X330200Y368300D02*
X330200Y342900D01*
X127000Y342900D02*
X127000Y469900D01*
X127000Y342900D02*
X101600Y317500D01*
X101600Y228600D01*
X114300Y215900D01*
X127000Y215900D01*
X139700Y228600D01*
X139700Y254000D01*
X355600Y254000D02*
X368300Y266700D01*
X368300Y304800D01*
X355600Y254000D02*
X139700Y254000D01*
X368300Y304800D02*
X444500Y228600D01*
X546100Y228600D01*
X406400Y304800D02*
X368300Y304800D01*
X406400Y304800D02*
X419100Y317500D01*
X546100Y317500D01*
X558800Y330200D01*
X558800Y546100D01*
X533400Y393700D02*
X482600Y393700D01*
X482600Y342900D02*
X533400Y342900D01*
X393700Y330200D02*
X368300Y355600D01*
X393700Y330200D02*
X457200Y330200D01*
X469900Y342900D01*
X482600Y342900D01*
X482600Y292100D02*
X508000Y266700D01*
X558800Y266700D01*
X571500Y254000D01*
X571500Y228600D01*
X292100Y381000D02*
X292100Y406400D01*
X317500Y431800D02*
X317500Y520700D01*
X342900Y546100D01*
X533400Y546100D01*
X317500Y431800D02*
X292100Y406400D01*
M02*
