G04 EAGLE Gerber RS-274X export*
G75*
%MOMM*%
%FSLAX34Y34*%
%LPD*%
%INSoldermask Bottom*%
%IPPOS*%
%AMOC8*
5,1,8,0,0,1.08239X$1,22.5*%
G01*
%ADD10P,1.649562X8X292.500000*%
%ADD11P,1.649562X8X22.500000*%
%ADD12C,1.524000*%
%ADD13P,1.649562X8X202.500000*%
%ADD14P,1.649562X8X112.500000*%
%ADD15C,1.625600*%


D10*
X139700Y279400D03*
X139700Y254000D03*
D11*
X533400Y546100D03*
X558800Y546100D03*
D12*
X482600Y400304D02*
X482600Y387096D01*
X457200Y387096D02*
X457200Y400304D01*
X546100Y235204D02*
X546100Y221996D01*
X571500Y221996D02*
X571500Y235204D01*
X374904Y304800D02*
X361696Y304800D01*
X361696Y330200D02*
X374904Y330200D01*
X298704Y330200D02*
X285496Y330200D01*
X285496Y304800D02*
X298704Y304800D01*
X361696Y355600D02*
X374904Y355600D01*
X374904Y381000D02*
X361696Y381000D01*
X298704Y355600D02*
X285496Y355600D01*
X285496Y381000D02*
X298704Y381000D01*
D13*
X215900Y393700D03*
X165100Y393700D03*
X254000Y495300D03*
X203200Y495300D03*
D14*
X533400Y342900D03*
X533400Y393700D03*
X482600Y292100D03*
X482600Y342900D03*
D15*
X127000Y462788D02*
X127000Y477012D01*
X152400Y477012D02*
X152400Y462788D01*
M02*
